<?xml version="1.0" encoding="UTF-8" standalone="no"?>
<!-- Created with Inkscape (http://www.inkscape.org/) -->

<svg
   xmlns:dc="http://purl.org/dc/elements/1.1/"
   xmlns:cc="http://creativecommons.org/ns#"
   xmlns:rdf="http://www.w3.org/1999/02/22-rdf-syntax-ns#"
   xmlns:svg="http://www.w3.org/2000/svg"
   xmlns="http://www.w3.org/2000/svg"
   xmlns:sodipodi="http://sodipodi.sourceforge.net/DTD/sodipodi-0.dtd"
   xmlns:inkscape="http://www.inkscape.org/namespaces/inkscape"
   version="1.1"
   id="svg2"
   width="77.843201"
   height="70.705429"
   viewBox="0 0 77.843201 70.705429"
   sodipodi:docname="logoIPI.svg"
   inkscape:version="0.92.3 (2405546, 2018-03-11)">
  <metadata
     id="metadata8">
    <rdf:RDF>
      <cc:Work
         rdf:about="">
        <dc:format>image/svg+xml</dc:format>
        <dc:type
           rdf:resource="http://purl.org/dc/dcmitype/StillImage" />
        <dc:title></dc:title>
      </cc:Work>
    </rdf:RDF>
  </metadata>
  <defs
     id="defs6" />
  <sodipodi:namedview
     pagecolor="#ffffff"
     bordercolor="#666666"
     borderopacity="1"
     objecttolerance="10"
     gridtolerance="10"
     guidetolerance="10"
     inkscape:pageopacity="0"
     inkscape:pageshadow="2"
     inkscape:window-width="2498"
     inkscape:window-height="1057"
     id="namedview4"
     showgrid="false"
     fit-margin-top="0"
     fit-margin-left="0"
     fit-margin-right="0"
     fit-margin-bottom="0"
     inkscape:zoom="2.8046588"
     inkscape:cx="69.501043"
     inkscape:cy="37.089589"
     inkscape:window-x="54"
     inkscape:window-y="-8"
     inkscape:window-maximized="1"
     inkscape:current-layer="svg2" />
  <path
     style="fill:#ae5727"
     d="M 25.43982,69.55115 C 25.15235,68.802012 25.04829,64.174695 25.20857,59.268224 L 25.5,50.347367 l 9,-0.249801 c 12.40914,-0.344424 13.13233,-0.592807 14.55726,-4.999749 0.66697,-2.062748 2.54983,-7.477688 4.18413,-12.033202 L 56.21285,24.781863 66.85642,25.064615 77.5,25.347367 v 10 10 l -9.49071,0.290711 c -5.21989,0.159891 -9.90996,0.709957 -10.42237,1.222369 -0.51241,0.512411 -2.76659,6.006591 -5.00929,12.209289 L 48.5,70.347367 37.23125,70.630293 C 28.44565,70.850875 25.84732,70.613073 25.43982,69.55115 Z M 10.16805,44.787153 C 4.5756201,40.318891 0,36.12766 0,35.473305 0,34.182106 18.03923,19.07317 20.11888,18.622542 c 0.71991,-0.155995 1.51397,1.024143 1.83339,2.724825 l 0.56346,3 10.49213,0.291582 c 5.77068,0.16037 11.40288,0.06484 12.51601,-0.212299 1.53217,-0.38146 2.96446,-3.124806 5.89528,-11.291582 C 53.54842,7.2018335 55.74273,1.7698705 56.29538,1.0640415 57.02299,0.13476747 60.08663,-0.14111853 67.4001,0.06404147 L 77.5,0.34736747 77.78886,9.6980825 c 0.18955,6.1361815 -0.11859,9.8416585 -0.89636,10.7788145 -0.93308,1.124291 -3.12189,1.312831 -10.28886,0.886262 -5.007,-0.29801 -9.64734,-0.183538 -10.31186,0.254383 -0.66453,0.437921 -2.84474,5.506281 -4.84492,11.263022 -2.00018,5.756742 -4.08755,11.015399 -4.63858,11.685905 -0.65689,0.799307 -5.01464,1.315829 -12.65508,1.5 -11.58651,0.27929 -11.65512,0.295205 -11.98788,2.780898 -0.18407,1.375 -0.67095,2.851877 -1.08195,3.281949 -0.411,0.430071 -5.32289,-2.873902 -10.91532,-7.342163 z M 25.44069,19.553405 C 25.15274,18.803027 25.04829,14.174695 25.20857,9.2682245 L 25.5,0.34736747 H 36 46.5 v 9.99999953 10 l -10.26789,0.285181 c -7.95121,0.220837 -10.386,-0.02264 -10.79142,-1.079143 z"
     id="path12"
     inkscape:connector-curvature="0" />
</svg>
